<?xml version="1.0" encoding="UTF-8" standalone="no"?>
<!-- Created with Inkscape (http://www.inkscape.org/) -->

<svg
   width="122.86355mm"
   height="57.077141mm"
   viewBox="0 0 122.86355 57.077141"
   version="1.1"
   id="svg12768"
   inkscape:version="1.1.1 (1:1.1+202109281949+c3084ef5ed)"
   sodipodi:docname="fruit_icons.svg"
   xmlns:inkscape="http://www.inkscape.org/namespaces/inkscape"
   xmlns:sodipodi="http://sodipodi.sourceforge.net/DTD/sodipodi-0.dtd"
   xmlns="http://www.w3.org/2000/svg"
   xmlns:svg="http://www.w3.org/2000/svg"
   xmlns:vectornator="http://vectornator.io">
  <sodipodi:namedview
     id="namedview12770"
     pagecolor="#ffffff"
     bordercolor="#666666"
     borderopacity="1.0"
     inkscape:pageshadow="2"
     inkscape:pageopacity="0.0"
     inkscape:pagecheckerboard="0"
     inkscape:document-units="mm"
     showgrid="false"
     inkscape:zoom="1.5231663"
     inkscape:cx="48.254743"
     inkscape:cy="113.90745"
     inkscape:window-width="3376"
     inkscape:window-height="1404"
     inkscape:window-x="6944"
     inkscape:window-y="1440"
     inkscape:window-maximized="1"
     inkscape:current-layer="layer1" />
  <defs
     id="defs12765" />
  <g
     inkscape:label="Layer 1"
     inkscape:groupmode="layer"
     id="layer1"
     transform="translate(-5.2667154,-75.046326)">
    <g
       id="g10709"
       transform="matrix(0.86422964,0,0,0.86422964,-401.69807,43.149164)">
      <path
         stroke="#000000"
         stroke-width="0.886351"
         d="m 572.8712,67.0964 c -0.8564,2.5723 -0.8564,2.5723 -1.7127,5.1449 0.665,0.2803 0.665,0.2803 1.3296,0.5603 1.005,-3.4772 0.9568,-3.3514 1.9618,-6.8287 0.4649,0.465 1.4264,1.7131 2.1473,2.6035 0.735,0.9077 1.23,1.4144 2.1901,0.6889 -0.2389,0.1975 -0.2389,0.1975 -0.4778,0.3955 0.2243,-0.237 0.679,-0.6183 0.4744,-0.8747 -0.6701,-0.8403 -1.4955,-1.5268 -2.1841,-2.3501 -0.5149,-0.616 -1.2069,-1.1758 -1.419,-1.9598 -0.1192,-0.4403 8e-4,-1.0896 0.024,-1.2949 0.063,-0.5756 0.242,-1.5731 0.3769,-2.136 0.2332,-0.9736 0.4507,-2.2248 -0.1507,-2.6025 -0.4199,-0.2637 -0.9219,1.2849 -1.1234,2.285 -0.119,0.5917 -0.3123,1.5496 -0.6804,2.6496 -0.1482,0.4427 -0.2704,0.8718 -0.4596,1.2962 -0.342,0.766 -1.0731,1.4121 -1.7959,1.745 -0.9398,0.4334 -1.9058,0.7985 -2.8586,1.1976 0.3235,0.5446 0.3235,0.5446 0.6465,1.0891 1.8555,-0.8044 1.8555,-0.8044 3.711,-1.6089 z"
         fill="#bd99c7"
         stroke-linecap="round"
         opacity="1"
         stroke-linejoin="round"
         id="path18-5-7-3-5-2-9-2-2-9-1-9-4"
         style="clip-rule:evenodd;fill:#000000;fill-opacity:1;fill-rule:nonzero;stroke:none;stroke-width:0.271647;stroke-miterlimit:4;stroke-dasharray:none;stroke-opacity:1"
         sodipodi:nodetypes="scccsccssscssssssccss" />
      <path
         stroke="#000000"
         stroke-width="0.869501"
         d="m 592.9594,50.0563 c -0.2807,-0.4254 -0.525,-0.5224 -1.0837,-0.4145 -1.629,0.3146 -3.2771,0.5717 -4.9129,0.8663 -2.4541,0.442 -5.097,0.5682 -7.1708,1.9008 -1.9209,1.2346 -2.3863,2.2956 -3.1047,3.7449 -1.0127,2.0431 -1.0762,2.8112 -1.6141,4.2168 2.0117,0.6828 3.9181,1.8919 6.0359,2.0487 1.6256,0.1204 3.3599,-0.3639 4.7077,-1.2534 1.8199,-1.2013 3.2478,-2.9619 4.4299,-4.7783 1.4242,-2.1878 2.9936,-5.9058 2.7127,-6.3313 z"
         fill="#52b800"
         stroke-linecap="round"
         opacity="1"
         stroke-linejoin="round"
         id="path20-3-54-7-9-9-0-6-4-5-1-3-3-7"
         style="clip-rule:evenodd;fill:#afdc82;fill-opacity:1;fill-rule:nonzero;stroke-width:1.13386;stroke-miterlimit:4;stroke-dasharray:none" />
      <path
         stroke="#000000"
         stroke-width="0.869501"
         d="m 560.0153,46.0845 c -0.3215,0.3921 -0.3437,0.6554 -0.084,1.1627 0.757,1.4797 1.4654,2.9944 2.2053,4.4862 1.11,2.2381 1.9759,4.7486 3.8178,6.3653 1.7061,1.4977 2.8373,1.6427 4.4056,1.9202 2.211,0.3911 2.9524,0.2323 4.4283,0.3485 0.075,-2.1341 0.6746,-4.3168 0.2239,-6.4022 -0.3466,-1.601 -1.2928,-3.1333 -2.5118,-4.1772 -1.6463,-1.4099 -3.7086,-2.282 -5.7538,-2.9014 -2.4637,-0.746 -6.4096,-1.1942 -6.7309,-0.8021 z"
         fill="#52b800"
         stroke-linecap="round"
         opacity="1"
         stroke-linejoin="round"
         id="path30-43-6-4-2-6-4-7-8-9-2-6-6"
         style="clip-rule:evenodd;fill:#afdc82;fill-opacity:1;fill-rule:nonzero;stroke-width:1.13386;stroke-miterlimit:4;stroke-dasharray:none" />
      <g
         id="Layer 8-8-6-8-2-8-3-7-6-6-1-0-8"
         vectornator:layerName="Layer 8"
         style="clip-rule:evenodd;fill:#5f87cd;fill-opacity:1;fill-rule:nonzero;stroke-width:30.8108;stroke-linecap:round;stroke-linejoin:round;stroke-miterlimit:4;stroke-dasharray:none"
         transform="matrix(0.03680069,0,0,0.03680069,497.7951,29.9531)">
        <path
           stroke="#000000"
           stroke-width="10.8752"
           d="m 2414.21,1625.17 -65.88,-57.23 -73.76,25.16 29.87,-89.09 -39.92,-80.88 79.92,6.06 62.21,-70.05 6.4,87.73 68.21,66.84 -65.81,18.91 z"
           fill="#46409e"
           stroke-linecap="butt"
           opacity="1"
           stroke-linejoin="round"
           id="path44-3-6-1-1-8-9-3-5-2-9-5-5-9"
           style="fill:#5f87cd;fill-opacity:1;stroke-width:30.8108;stroke-miterlimit:4;stroke-dasharray:none" />
      </g>
      <g
         id="Layer 5 copy copy copy-8-5-2-9-2-3-4-8-3-9-0-0"
         vectornator:layerName="Layer 5 copy copy copy"
         style="clip-rule:evenodd;fill:#739bd7;fill-opacity:1;fill-rule:nonzero;stroke-width:30.8108;stroke-linecap:round;stroke-linejoin:round;stroke-miterlimit:4;stroke-dasharray:none"
         transform="matrix(0.03680069,0,0,0.03680069,497.7951,29.9531)">
        <path
           stroke="#000000"
           stroke-width="30.9441"
           d="m 2029.37,1294.92 c 0,-129.8 110.36,-235.03 246.49,-235.03 136.13,0 246.49,105.23 246.49,235.03 0,129.8 -110.36,235.03 -246.49,235.03 -136.13,0 -246.49,-105.23 -246.49,-235.03 z"
           fill="#4c46ab"
           stroke-linecap="butt"
           opacity="1"
           stroke-linejoin="round"
           id="path47-5-8-9-9-7-6-8-8-4-3-9-2-6"
           style="fill:#739bd7;fill-opacity:1;stroke-width:30.8108;stroke-miterlimit:4;stroke-dasharray:none" />
      </g>
      <g
         id="Layer 5 copy copy-4-4-3-3-6-6-1-7-8-1-9-8"
         vectornator:layerName="Layer 5 copy copy"
         style="clip-rule:evenodd;fill:#8cb4eb;fill-opacity:1;fill-rule:nonzero;stroke-linecap:round;stroke-linejoin:round"
         transform="matrix(0.03680069,0,0,0.03680069,497.7951,29.9531)">
        <path
           d="m 2111.17,1232.72 c 0,-85.42 76.9,-154.67 171.76,-154.67 94.87,0 171.77,69.25 171.77,154.67 0,85.43 -76.9,154.67 -171.77,154.67 -94.86,0 -171.76,-69.24 -171.76,-154.67 z"
           opacity="1"
           fill="#655de3"
           id="path50-6-31-9-9-6-4-0-2-2-0-4-4-7"
           style="fill:#8cb4eb;fill-opacity:1" />
      </g>
      <g
         id="Layer 5-4-0-0-1-9-4-8-4-5-9-3-9"
         vectornator:layerName="Layer 5"
         style="clip-rule:evenodd;fill:#5f87cd;fill-opacity:1;fill-rule:nonzero;stroke-width:30.8108;stroke-linecap:round;stroke-linejoin:round;stroke-miterlimit:4;stroke-dasharray:none"
         transform="matrix(0.03680069,0,0,0.03680069,497.3704,30.123)">
        <path
           stroke="#000000"
           stroke-width="10.8752"
           d="m 1589.84,1395.22 -29.38,-91.09 -88.75,-27.9 74.16,-55.56 -3.26,-95.53 75.22,56.75 86.74,-31.15 -27.67,90.64 56.86,76.28 -92.32,-0.73 z"
           fill="#433e97"
           stroke-linecap="butt"
           opacity="1"
           stroke-linejoin="round"
           id="path53-2-9-9-8-2-5-8-9-0-6-1-5-0"
           style="fill:#5f87cd;fill-opacity:1;stroke-width:30.8108;stroke-miterlimit:4;stroke-dasharray:none" />
      </g>
      <g
         id="_ copy-2-1-8-9-0-8-3-6-6-0-1-3"
         vectornator:layerName="_ copy"
         style="clip-rule:evenodd;fill:#739bd7;fill-opacity:1;fill-rule:nonzero;stroke-width:30.8108;stroke-linecap:round;stroke-linejoin:round;stroke-miterlimit:4;stroke-dasharray:none"
         transform="matrix(0.03680069,0,0,0.03680069,497.7951,29.9531)">
        <path
           stroke="#000000"
           stroke-width="30.9441"
           d="m 1508.64,1057.18 c 31.52,-119.253 152.85,-187.378 271,-152.161 118.15,35.217 188.38,160.441 156.87,279.691 -31.52,119.26 -152.85,187.38 -271,152.16 -118.15,-35.21 -188.38,-160.44 -156.87,-279.69 z"
           fill="#4c46ab"
           stroke-linecap="butt"
           opacity="1"
           stroke-linejoin="round"
           id="path56-9-0-7-5-3-4-8-6-2-4-7-7-3"
           style="fill:#739bd7;fill-opacity:1;stroke-width:30.8108;stroke-miterlimit:4;stroke-dasharray:none" />
      </g>
      <g
         id="_ copy copy-68-7-0-1-8-9-8-9-0-5-4-3"
         vectornator:layerName="_ copy copy"
         style="clip-rule:evenodd;fill:#8cb4eb;fill-opacity:1;fill-rule:nonzero;stroke-linecap:round;stroke-linejoin:round"
         transform="matrix(0.03680069,0,0,0.03680069,497.7951,29.9531)">
        <path
           d="m 1601.95,1031.78 c 22.57,-79.98 109.46,-125.669 194.07,-102.051 84.61,23.619 134.9,107.601 112.33,187.581 -22.57,79.98 -109.46,125.67 -194.07,102.05 -84.61,-23.62 -134.9,-107.6 -112.33,-187.58 z"
           opacity="1"
           fill="#635bdf"
           id="path59-1-9-1-9-9-7-7-0-9-0-8-3-7"
           style="fill:#8cb4eb;fill-opacity:1" />
      </g>
      <g
         id="_ copy_2-2-1-6-4-1-7-2-0-4-7-1-3"
         vectornator:layerName="_ copy"
         style="clip-rule:evenodd;fill:#739bd7;fill-opacity:1;fill-rule:nonzero;stroke-width:30.8108;stroke-linecap:round;stroke-linejoin:round;stroke-miterlimit:4;stroke-dasharray:none"
         transform="matrix(0.03680069,0,0,0.03680069,497.7951,29.9531)">
        <path
           stroke="#000000"
           stroke-width="30.9441"
           d="m 1688.52,1406.51 c 0,-139.59 115.59,-252.75 258.18,-252.75 142.58,0 258.17,113.16 258.17,252.75 0,139.58 -115.59,252.74 -258.17,252.74 -142.59,0 -258.18,-113.16 -258.18,-252.74 z"
           fill="#5952c9"
           stroke-linecap="butt"
           opacity="1"
           stroke-linejoin="round"
           id="path62-2-6-5-3-7-7-6-1-8-6-0-4-2"
           style="fill:#739bd7;fill-opacity:1;stroke-width:30.8108;stroke-miterlimit:4;stroke-dasharray:none" />
      </g>
      <g
         id="_-6-9-8-8-2-4-0-1-2-4-6-6"
         vectornator:layerName="_"
         style="clip-rule:evenodd;fill:#8cb4eb;fill-opacity:1;fill-rule:nonzero;stroke-linecap:round;stroke-linejoin:round"
         transform="matrix(0.03680069,0,0,0.03680069,497.7951,29.9531)">
        <path
           d="m 1745.25,1371.16 c 0,-114.43 95.61,-207.19 213.54,-207.19 117.94,0 213.55,92.76 213.55,207.19 0,114.43 -95.61,207.19 -213.55,207.19 -117.93,0 -213.54,-92.76 -213.54,-207.19 z"
           opacity="1"
           fill="#7168ff"
           id="path65-7-4-7-5-4-7-3-5-3-6-8-9-5"
           style="fill:#8cb4eb;fill-opacity:1" />
        <path
           d="m 1744.67,1370.31 c 0,-114.43 95.61,-207.19 213.55,-207.19 117.94,0 213.54,92.76 213.54,207.19 0,114.42 -95.6,207.18 -213.54,207.18 -117.94,0 -213.55,-92.76 -213.55,-207.18 z"
           opacity="1"
           fill="#7168ff"
           id="path67-9-7-6-5-2-0-1-1-7-0-4-2"
           style="fill:#8cb4eb;fill-opacity:1" />
      </g>
      <g
         id="Layer 6-5-6-1-0-2-3-1-1-5-4-2-6"
         vectornator:layerName="Layer 6"
         style="clip-rule:evenodd;fill:#5f87cd;fill-opacity:1;fill-rule:nonzero;stroke-width:30.8108;stroke-linecap:round;stroke-linejoin:round;stroke-miterlimit:4;stroke-dasharray:none"
         transform="matrix(0.03680069,0,0,0.03680069,497.7951,29.9531)">
        <path
           stroke="#000000"
           stroke-width="10.8752"
           d="m 1783.93,1635.72 0.33,-0.71 c 4.52,-9.69 18.5,-22.85 17.22,-34.98 -1.26,-11.87 -17.65,-22.71 -23.9,-31.35 l -0.47,-0.64 c -6.89,-9.51 -17.33,-21.49 -12.68,-26.65 3.88,-4.31 21.27,-2.69 31.84,-1.93 l 0.85,0.06 c 13.67,0.98 32.79,13.79 46.87,7.34 9.84,-4.52 15.76,-26.87 21.81,-33.51 l 0.54,-0.59 c 7.84,-8.6 22.99,-26.09 29.84,-24.02 6.01,1.81 4.05,21.99 6.57,31.43 l 0.2,0.75 c 3.16,11.82 -1.6,33.3 9.54,43.22 7.91,7.03 30.57,3.83 39.58,6.94 l 0.81,0.27 c 12.83,4.43 33.08,6.61 31.56,13.82 -1.05,5 -20.08,14.92 -28.22,19.35 l -0.74,0.4 c -11.28,6.14 -35.39,6.49 -42.51,18.56 -5.43,9.2 4.75,29.63 4.2,38.6 l -0.05,0.77 c -0.54,8.82 1.2,28.97 -3.53,32.06 -6.4,4.19 -20.63,-11.2 -30.8,-18.98 l -0.66,-0.5 c -8.51,-6.5 -14.27,-26.99 -26.9,-29.75 -13.62,-2.96 -34.23,12.16 -45.9,14.93 l -0.84,0.19 c -7.87,1.87 -26.94,13.76 -31.63,11.94 -8.74,-3.38 1.25,-24.54 7.07,-37.02 z"
           fill="#4c46ab"
           stroke-linecap="butt"
           opacity="1"
           stroke-linejoin="round"
           id="path70-0-7-1-3-6-0-0-0-6-2-2-5"
           style="fill:#5f87cd;fill-opacity:1;stroke-width:30.8108;stroke-miterlimit:4;stroke-dasharray:none" />
      </g>
    </g>
    <g
       id="g46712-9-0"
       transform="matrix(0.86422964,0,0,0.86422964,-2793.0472,795.9015)">
      <path
         stroke="#000000"
         stroke-width="43.661"
         d="m 3254.0995,-797.16133 c 0,-10.51647 9.2589,-19.04172 20.6807,-19.04172 11.4215,0 20.6809,8.52525 20.6809,19.04172 0,10.51624 -9.2594,19.04181 -20.6809,19.04181 -11.4218,0 -20.6807,-8.52557 -20.6807,-19.04181 z"
         fill="#ea0000"
         stroke-linecap="butt"
         opacity="1"
         stroke-linejoin="round"
         id="path9-1-4-3-5-1-0-2-9-3-9-0-0-6-7"
         style="clip-rule:evenodd;fill:#dc4b4b;fill-opacity:1;fill-rule:nonzero;stroke-width:1.13386;stroke-miterlimit:4;stroke-dasharray:none" />
      <path
         d="m 3258.7043,-799.58711 c 0,-8.62081 7.6585,-15.60937 17.106,-15.60937 9.4471,0 17.1057,6.98856 17.1057,15.60937 0,8.62064 -7.6586,15.60942 -17.1057,15.60942 -9.4475,0 -17.106,-6.98878 -17.106,-15.60942 z"
         opacity="1"
         fill="#ff0909"
         id="path11-6-5-8-6-9-06-6-5-4-4-8-2-4-0-3"
         style="clip-rule:evenodd;fill:#ff5555;fill-opacity:1;fill-rule:nonzero;stroke:#ff5555;stroke-width:0.0590048;stroke-linecap:round;stroke-linejoin:round;stroke-miterlimit:4;stroke-dasharray:none;stroke-opacity:1" />
      <path
         stroke="#000000"
         stroke-width="0.94954"
         d="m 3266.985,-798.5524 c 0,0 1.207,-2.36781 3.3444,-4.85257 2.1375,-2.4847 5.2317,-4.72044 5.2317,-4.72044 0,0 -2.0578,-0.69909 -4.7146,-3.15515 -2.6567,-2.45604 -6.8043,-9.17304 -6.8043,-9.17304 0,0 3.3635,4.51066 7.1468,5.51503 3.7834,1.00441 6.4624,3.60903 6.4624,3.60903 0,0 1.3557,-2.30348 1.9316,-5.98161 0.6549,-4.18298 4.861,-8.29813 4.861,-8.29813 l -1.2163,3.03645 c 0,0 -0.8779,2.3375 -0.4355,5.95413 0.4425,3.61662 -0.5838,6.47613 -0.5838,6.47613 0,0 4.1445,-0.12338 7.552,-0.0231 3.4077,0.10028 5.1934,-1.93023 5.1934,-1.93023 0,0 -2.574,3.04959 -5.9876,4.26699 -3.4136,1.21738 -6.2703,1.51421 -6.2703,1.51421 0,0 0.7742,2.14911 1.883,4.08066 1.1089,1.93162 5.5131,6.19434 5.5131,6.19434 0,0 -5.4913,-1.83866 -7.7246,-4.27114 -2.2331,-2.43252 -3.211,-5.08996 -3.211,-5.08996 0,0 -3.0019,1.96145 -6.4791,3.32067 -3.4771,1.35922 -5.6923,3.52776 -5.6923,3.52776 z"
         fill="#149b04"
         stroke-linecap="round"
         opacity="1"
         stroke-linejoin="round"
         id="path13-5-7-5-8-3-1-4-6-0-7-7-2-4-1"
         style="clip-rule:evenodd;fill:#afdc82;fill-opacity:1;fill-rule:nonzero;stroke-width:1.13386;stroke-miterlimit:4;stroke-dasharray:none"
         sodipodi:nodetypes="cscscscsccscscscscscscc" />
      <path
         stroke="#000000"
         stroke-width="0.700114"
         d="m 3279.4165,-807.52775 v 0 c -0.5395,-0.57944 -0.457,-1.54172 0.1841,-2.14939 0,0 3.5251,-3.83056 6.2081,-6.28964 2.6832,-2.45903 4.5239,-3.54658 4.5239,-3.54658 0.6412,-0.60768 3.6868,-1.7023 4.2262,-1.1229 0,0 -1.4421,1.59779 -1.4787,1.60533 -0.036,0.007 -2.2779,1.16957 -2.9192,1.77722 0,0 -0.9209,0.57802 -2.0666,1.74455 -0.571,0.58137 -1.5358,1.5554 -2.4099,2.40052 -0.536,0.51798 -1.3661,1.23557 -1.7994,1.68206 -1.6916,1.74374 -2.2426,2.64485 -2.2426,2.64485 -0.6414,0.60762 -1.6866,1.83337 -2.2261,1.25396 z"
         fill="#149b04"
         stroke-linecap="butt"
         opacity="1"
         stroke-linejoin="round"
         id="path15-0-4-1-6-4-2-5-0-9-3-2-6-2-1-1"
         style="clip-rule:evenodd;fill:#afdc82;fill-opacity:1;fill-rule:nonzero;stroke-width:0.850394;stroke-miterlimit:4;stroke-dasharray:none" />
    </g>
  </g>
</svg>
